<svg width="48" height="30" viewBox="0 0 48 30" fill="none" xmlns="http://www.w3.org/2000/svg">
<path d="M0 2.25C0 1.0125 1.0125 0 2.25 0H45.75C46.9875 0 48 1.0125 48 2.25V27.75C48 28.9875 46.9875 30 45.75 30H2.25C1.0125 30 0 28.9875 0 27.75V2.25Z" fill="#F2F2F2"/>
<path fill-rule="evenodd" clip-rule="evenodd" d="M8.21246 23.625H40.05V18H8.21246V23.625Z" fill="#463F8D"/>
<path d="M18.075 14.925L18.15 14.6625C18.075 14.6625 18 14.625 17.925 14.5875C17.85 14.55 17.775 14.5125 17.7375 14.4375C17.7 14.3625 17.6625 14.325 17.6625 14.25L17.1 7.23749C17.1 7.12499 17.0625 7.01249 16.9875 6.93749C16.9125 6.86249 16.8375 6.78749 16.7625 6.74999C16.65 6.71249 16.575 6.67499 16.4625 6.67499H12.9L12.75 6.93749C12.825 6.93749 12.8625 6.97499 12.9 6.97499C12.9375 7.01249 13.0125 7.04999 13.05 7.12499C13.0875 7.16249 13.0875 7.23749 13.0875 7.27499C13.0875 7.31249 13.0875 7.34999 13.0875 7.38749C13.0875 7.42499 13.0875 7.42499 13.05 7.46249L9.52499 14.2875C9.52499 14.325 9.48749 14.3625 9.48749 14.4C9.48749 14.4375 9.48749 14.475 9.48749 14.5125C9.48749 14.625 9.52499 14.7375 9.63749 14.8125C9.71249 14.8875 9.86249 14.925 10.0125 14.925H12.6L12.675 14.6625C12.6375 14.6625 12.5625 14.6625 12.525 14.625C12.4875 14.5875 12.45 14.5875 12.4125 14.5125C12.375 14.475 12.375 14.4375 12.375 14.3625C12.375 14.3625 12.375 14.325 12.375 14.2875C12.375 14.25 12.375 14.2125 12.4125 14.2125L12.9 13.2375H14.2875L14.4 14.475C14.4 14.6625 14.475 14.775 14.5875 14.85C14.7 14.925 14.85 14.9625 15.0375 14.9625H18.075V14.925ZM14.1375 10.3125L14.25 11.6625H13.575L14.1375 10.3125Z" fill="#463F8D"/>
<path d="M14.9625 15.1875C14.7 15.1875 14.5125 15.15 14.3625 15.0375C14.2125 14.925 14.1 14.7375 14.0625 14.475L13.9875 13.5H13.0125L12.6 14.325C12.6 14.325 12.6 14.325 12.6375 14.325H12.675C12.75 14.325 12.825 14.3625 12.9 14.4375C12.9375 14.5125 12.975 14.5875 12.9375 14.6625L12.8625 14.925C12.825 15.0375 12.7125 15.15 12.6 15.15H10.0125C9.78745 15.15 9.59995 15.075 9.48745 14.9625C9.33745 14.85 9.26245 14.6625 9.26245 14.475C9.26245 14.4375 9.26245 14.3625 9.29995 14.2875C9.29995 14.25 9.33745 14.175 9.37495 14.1375L12.9 7.3125C12.9 7.3125 12.9 7.3125 12.9 7.275C12.9 7.275 12.9 7.275 12.9 7.2375C12.9 7.2 12.8625 7.2 12.825 7.1625H12.7875C12.7125 7.1625 12.6375 7.125 12.5625 7.05C12.525 6.975 12.4875 6.9 12.525 6.825L12.6 6.5625C12.6375 6.45 12.75 6.375 12.8625 6.375H16.425C16.575 6.375 16.725 6.4125 16.8375 6.45C16.9875 6.525 17.1 6.6 17.175 6.75C17.25 6.8625 17.325 7.0125 17.325 7.2L17.8875 14.2125C17.8875 14.2125 17.8875 14.25 17.925 14.25C17.9625 14.2875 18 14.325 18.0375 14.3625C18.075 14.3625 18.1125 14.4 18.15 14.4C18.225 14.4 18.3 14.4375 18.3375 14.5125C18.375 14.5875 18.4125 14.6625 18.375 14.7375L18.3 15C18.2625 15.1125 18.15 15.225 18.0375 15.225L14.9625 15.1875ZM12.825 12.975H14.2125C14.3625 12.975 14.475 13.0875 14.475 13.2L14.5875 14.4375C14.5875 14.475 14.5875 14.5875 14.6625 14.5875C14.7 14.5875 14.775 14.625 14.9625 14.625H17.55L17.5125 14.5875C17.4375 14.475 17.3625 14.3625 17.3625 14.25L16.8 7.2375C16.8 7.1625 16.7625 7.0875 16.725 7.05C16.6875 7.0125 16.65 6.975 16.6125 6.9375C16.5375 6.9 16.5 6.9 16.425 6.9H13.275C13.275 6.9375 13.3125 6.9375 13.3125 6.975C13.3875 7.05 13.425 7.1625 13.425 7.275C13.425 7.35 13.425 7.3875 13.425 7.425C13.425 7.4625 13.3875 7.5375 13.3875 7.575L9.86245 14.4C9.86245 14.4 9.86245 14.4375 9.82495 14.475C9.82495 14.5125 9.82495 14.5125 9.82495 14.5125C9.82495 14.55 9.82495 14.55 9.86245 14.5875C9.89995 14.625 10.0125 14.625 10.05 14.625H12.1875C12.15 14.55 12.1125 14.475 12.1125 14.3625C12.1125 14.325 12.1125 14.2875 12.1125 14.25C12.1125 14.175 12.15 14.1375 12.15 14.0625L12.6375 13.0875C12.6375 13.05 12.75 12.975 12.825 12.975ZM14.2125 11.8875H13.5375C13.4625 11.8875 13.35 11.85 13.3125 11.775C13.275 11.7 13.2375 11.5875 13.275 11.5125L13.875 10.1625C13.9125 10.05 14.025 9.975 14.175 10.0125C14.2875 10.05 14.4 10.125 14.4 10.2375L14.5125 11.5875C14.5125 11.6625 14.475 11.7375 14.4375 11.775C14.3625 11.8875 14.2875 11.8875 14.2125 11.8875Z" fill="white"/>
<path d="M22.2374 10.8375C22.2749 10.725 22.3124 10.6125 22.4249 10.5375C22.5374 10.4625 22.6874 10.425 22.8749 10.425H23.3999C23.6624 10.425 23.8874 10.3875 24.0374 10.275C24.2249 10.1625 24.3374 10.0125 24.4124 9.82495L24.7499 8.32495H23.6999C23.5499 8.32495 23.3999 8.36245 23.3249 8.39995C23.2124 8.43745 23.1374 8.51245 23.0624 8.58745C22.9874 8.66245 22.9124 8.77495 22.8374 8.88745C22.7624 8.99995 22.6874 9.11245 22.6124 9.26245H22.4999C22.5374 9.18745 22.5374 9.11245 22.5374 9.03745C22.5374 8.96245 22.5374 8.92495 22.5374 8.84995C22.5374 8.69995 22.4999 8.58745 22.3874 8.51245C22.2749 8.43745 22.1249 8.39995 21.9374 8.39995H19.2749L19.1999 8.66245C19.2374 8.66245 19.3124 8.66245 19.3499 8.69995C19.3874 8.73745 19.4624 8.77495 19.4624 8.81245C19.4999 8.84995 19.4999 8.92495 19.4999 8.99995C19.4999 9.03745 19.4999 9.07495 19.4999 9.11245C19.4999 9.14995 19.4999 9.18745 19.4624 9.22495L18.2999 14.2875C18.2999 14.325 18.2624 14.4 18.2624 14.4375C18.2624 14.475 18.2624 14.5125 18.2624 14.55C18.2624 14.625 18.2999 14.7 18.3749 14.775C18.4499 14.85 18.5249 14.85 18.6374 14.8875H21.6374L21.7124 14.625C21.6749 14.625 21.5999 14.625 21.5624 14.5875C21.5249 14.55 21.4499 14.5125 21.4499 14.4375C21.4124 14.4 21.4124 14.325 21.4124 14.25C21.4124 14.2125 21.4124 14.175 21.4124 14.1375C21.4124 14.1 21.4124 14.0625 21.4124 14.0625L22.2374 10.8375Z" fill="#463F8D"/>
<path d="M21.7499 15.1875H18.7499C18.5624 15.1875 18.4124 15.15 18.2999 15.0375C18.1874 14.925 18.1124 14.775 18.1124 14.625C18.1124 14.5875 18.1124 14.55 18.1124 14.475C18.1124 14.4 18.1124 14.3625 18.1499 14.2875L19.3124 9.22498C19.3124 9.18748 19.3124 9.18748 19.3124 9.14998C19.3124 9.11248 19.3124 9.11248 19.3124 9.07498V9.03748C19.3124 8.99998 19.2749 8.99998 19.2749 8.99998H19.2374C19.1624 8.99998 19.0874 8.96248 19.0499 8.88748C19.0124 8.81248 18.9749 8.73748 19.0124 8.66248L19.0874 8.39998C19.1249 8.28748 19.2374 8.17498 19.3499 8.17498H22.0124C22.2749 8.17498 22.4999 8.24998 22.6499 8.36248C22.7249 8.43748 22.7999 8.51248 22.8374 8.58748C22.8749 8.54998 22.9124 8.47498 22.9499 8.43748C23.0624 8.32498 23.1749 8.24998 23.3249 8.17498C23.4749 8.09998 23.6249 8.09998 23.8124 8.09998H24.8624C24.9374 8.09998 25.0124 8.13748 25.0874 8.21248C25.1249 8.28748 25.1624 8.36248 25.1249 8.43748L24.7874 9.93748V9.97498C24.6749 10.2375 24.5249 10.4625 24.2999 10.575C24.0749 10.6875 23.8124 10.7625 23.5124 10.7625H22.9874C22.7624 10.7625 22.6874 10.8 22.6499 10.8C22.6124 10.8375 22.5749 10.8375 22.5749 10.9125L21.8249 14.1375V14.175C21.8249 14.2125 21.8249 14.2125 21.8249 14.25C21.8249 14.2875 21.8249 14.2875 21.8249 14.2875C21.8249 14.325 21.8624 14.325 21.8624 14.325C21.9374 14.325 22.0124 14.3625 22.0874 14.4375C22.1249 14.5125 22.1624 14.5875 22.1249 14.6625L22.0124 15C21.9749 15.1125 21.8624 15.1875 21.7499 15.1875ZM19.8374 9.37498L18.6749 14.4C18.6749 14.4375 18.6749 14.475 18.6374 14.5125C18.6374 14.55 18.6374 14.55 18.6374 14.5875C18.6374 14.5875 18.6374 14.5875 18.6749 14.625C18.6749 14.625 18.7124 14.6625 18.7874 14.6625H21.3749C21.3749 14.625 21.3374 14.625 21.3374 14.5875C21.2624 14.5125 21.2624 14.4 21.2624 14.2875C21.2624 14.25 21.2624 14.2125 21.2624 14.175C21.2624 14.1375 21.2624 14.1 21.2624 14.025L22.0124 10.8C22.0499 10.6125 22.1624 10.4625 22.3124 10.35C22.4624 10.275 22.6499 10.2 22.9124 10.2H23.4374C23.6624 10.2 23.8124 10.1625 23.9624 10.0875C24.0749 10.0125 24.1499 9.93748 24.2249 9.78748L24.4874 8.62498H23.7749C23.6624 8.62498 23.5499 8.62498 23.4749 8.66248C23.3999 8.69998 23.3624 8.73748 23.2874 8.77498C23.2124 8.84998 23.1749 8.92498 23.0999 9.03748C23.0249 9.14998 22.9499 9.26248 22.8749 9.41248C22.8374 9.48748 22.7249 9.52498 22.6499 9.52498H22.4999C22.4249 9.52498 22.3499 9.48748 22.2749 9.41248C22.2374 9.33748 22.1999 9.26248 22.2374 9.18748C22.2749 9.11248 22.2749 9.03748 22.2749 8.99998C22.2749 8.92498 22.2749 8.88748 22.2749 8.88748C22.2749 8.81248 22.2374 8.77498 22.2374 8.77498C22.2374 8.77498 22.1624 8.73748 21.9749 8.73748H19.7249C19.7249 8.73748 19.7249 8.77498 19.7624 8.77498C19.8374 8.84998 19.8374 8.96248 19.8749 9.11248C19.8749 9.14997 19.8749 9.18748 19.8749 9.22498C19.8749 9.26248 19.8374 9.29998 19.8374 9.37498Z" fill="white"/>
<path d="M28.1249 12.9375C27.8624 12.9375 27.7124 12.8625 27.5999 12.75C27.4874 12.6375 27.4874 12.45 27.5249 12.225L28.1999 9.37499C28.2374 9.22499 28.2749 9.07499 28.3499 8.96249C28.4249 8.84999 28.4999 8.73749 28.6124 8.66249C28.7249 8.58749 28.9124 8.54999 29.0999 8.54999H30.3749C30.5624 8.54999 30.7499 8.51249 30.8624 8.47499C30.9749 8.39999 31.0499 8.32499 31.1249 8.24999C31.1999 8.13749 31.2374 8.02499 31.2749 7.87499C31.3124 7.76249 31.3499 7.64999 31.3874 7.49999C31.4249 7.34999 31.4624 7.19999 31.4999 7.04999C31.5374 6.89999 31.5374 6.78749 31.5749 6.67499H27.4124C27.1499 6.67499 26.8874 6.71249 26.6249 6.82499C26.3624 6.89999 26.1374 7.04999 25.9124 7.23749C25.6874 7.42499 25.4999 7.64999 25.3124 7.94999C25.1624 8.24999 25.0124 8.58749 24.9374 8.96249L24.2624 11.85C24.1874 12.225 24.1124 12.5625 24.0749 12.8625C24.0374 13.1625 24.0374 13.4625 24.1124 13.725C24.1499 13.9875 24.2624 14.2125 24.4499 14.3625C24.5999 14.55 24.8249 14.7 25.1249 14.775C25.4249 14.8875 25.7999 14.925 26.2499 14.925H28.9499C29.2499 14.925 29.4749 14.8875 29.6249 14.8125C29.8124 14.7375 29.9249 14.6625 29.9999 14.55C30.0749 14.4375 30.1499 14.2875 30.1874 14.1375L30.5249 12.6375H30.2624C30.2249 12.7125 30.1874 12.75 30.1124 12.7875C30.0374 12.825 29.9624 12.8625 29.8874 12.9C29.8124 12.9375 29.7374 12.9375 29.6249 12.9375H28.1249Z" fill="#463F8D"/>
<path d="M28.9874 15.1875H26.2874C25.7999 15.1875 25.3874 15.15 25.0499 15.0375C24.7124 14.925 24.4499 14.775 24.2249 14.55C24.0374 14.325 23.8874 14.0625 23.8499 13.7625C23.7749 13.4625 23.7749 13.1625 23.8124 12.825C23.8499 12.4875 23.8874 12.15 23.9999 11.775L24.6749 8.88748C24.7874 8.47498 24.8999 8.09997 25.0874 7.79997C25.2749 7.49997 25.4999 7.23748 25.7249 7.01248C25.9874 6.78748 26.2499 6.63748 26.5124 6.56248C26.8124 6.44998 27.0749 6.41248 27.3749 6.41248H31.4999C31.5749 6.41248 31.6499 6.44998 31.6874 6.48748C31.7249 6.56248 31.7624 6.63748 31.7624 6.71248C31.7624 6.82498 31.7249 6.93748 31.6874 7.12498V7.16248C31.6499 7.31248 31.6124 7.42498 31.6124 7.57498C31.5749 7.72498 31.5374 7.83748 31.4999 7.94998C31.4624 8.09998 31.4249 8.24997 31.3499 8.39997C31.2749 8.54997 31.1249 8.66247 30.9749 8.73747C30.8249 8.81247 30.6374 8.84998 30.3749 8.84998H29.1374C28.9874 8.84998 28.8749 8.88747 28.7999 8.92497C28.7249 8.96247 28.6499 9.03747 28.6124 9.11247C28.5749 9.22497 28.5374 9.33748 28.4999 9.44998L27.8249 12.3C27.7874 12.4125 27.7874 12.525 27.8249 12.6C27.8624 12.6375 27.9749 12.675 28.1249 12.675H29.6624C29.6999 12.675 29.7749 12.675 29.8499 12.6375C29.9249 12.6375 29.9624 12.6 29.9999 12.5625L30.0374 12.525C30.0749 12.4125 30.1874 12.3375 30.2999 12.3375H30.5624C30.6374 12.3375 30.7124 12.375 30.7874 12.45C30.8249 12.525 30.8624 12.6 30.8249 12.675L30.4874 14.175C30.4499 14.3625 30.3749 14.55 30.2624 14.7C30.1499 14.85 29.9624 15 29.7749 15.075C29.5499 15.15 29.3249 15.1875 28.9874 15.1875ZM27.4124 6.93748C27.1874 6.93748 26.9249 6.97498 26.6999 7.04998C26.4749 7.12498 26.2499 7.23748 26.0624 7.42498C25.8749 7.57498 25.6874 7.79998 25.5374 8.06248C25.3874 8.32498 25.2749 8.66248 25.1624 8.99997L24.4874 11.8875C24.4124 12.225 24.3374 12.5625 24.3374 12.8625C24.2999 13.1625 24.2999 13.3875 24.3749 13.65C24.4124 13.875 24.4874 14.025 24.6374 14.175C24.7499 14.325 24.9749 14.4375 25.1999 14.5125C25.4624 14.5875 25.8374 14.6625 26.2499 14.6625H28.9499C29.2124 14.6625 29.3999 14.625 29.5499 14.5875C29.6624 14.55 29.7374 14.475 29.8124 14.4C29.8874 14.325 29.9249 14.2125 29.9249 14.1L30.1499 13.0875C30.1499 13.125 30.0749 13.125 29.9999 13.1625C29.8874 13.2 29.7749 13.2 29.6624 13.2H28.1249C27.7874 13.2 27.5624 13.0875 27.4124 12.9C27.2624 12.7125 27.2249 12.45 27.2999 12.15L27.9749 9.29997C28.0124 9.11247 28.0499 8.96248 28.1249 8.81247C28.1999 8.66248 28.3499 8.51248 28.4999 8.43748C28.6499 8.36248 28.8749 8.28748 29.0999 8.28748H30.3749C30.5624 8.28748 30.6749 8.24997 30.7124 8.21248C30.7874 8.17498 30.8249 8.13748 30.8624 8.06248C30.8999 7.98748 30.9374 7.87498 30.9749 7.76248C31.0124 7.64998 31.0499 7.53748 31.0874 7.38748C31.1249 7.23748 31.1624 7.12498 31.1624 6.97498V6.93748C31.1624 6.89998 31.1624 6.89998 31.1624 6.86248H27.4124V6.93748Z" fill="white"/>
<path d="M34.0499 12.525C34.0874 12.375 34.1249 12.2625 34.1624 12.1875C34.1999 12.1125 34.2749 12.0375 34.3499 12.0375C34.4249 12 34.4999 12 34.5374 12C34.6124 12 34.6499 12 34.7249 12C34.7624 12 34.7999 12 34.8374 12L34.5749 13.0875C34.5749 13.1625 34.5374 13.2375 34.4624 13.3125C34.4249 13.35 34.3499 13.3875 34.2374 13.3875H34.1624C34.0874 13.3875 34.0124 13.3875 33.9749 13.35C33.9374 13.3125 33.8999 13.2375 33.8999 13.1625C33.8999 13.125 33.8999 13.125 33.8999 13.05C33.8999 13.0125 33.8999 12.975 33.8999 12.9375L34.0499 12.525ZM37.1624 8.4375H33.0749L32.8124 9.45C32.8124 9.4875 32.7749 9.525 32.7749 9.5625C32.7749 9.6 32.7749 9.6375 32.7749 9.675C32.7749 9.825 32.8124 9.9375 32.8874 9.975C32.9624 10.05 33.1124 10.0875 33.2999 10.0875H34.8749C34.9874 10.0875 35.0624 10.125 35.0999 10.1625C35.1374 10.2 35.1374 10.3125 35.1374 10.425C35.0999 10.5375 35.0624 10.6125 34.9874 10.65C34.9124 10.6875 34.8374 10.725 34.7249 10.725H33.1499C32.7749 10.725 32.4749 10.8 32.2124 10.9125C31.9499 11.0625 31.6874 11.2875 31.4999 11.5875C31.3124 11.8875 31.1624 12.3 31.0124 12.825C31.0124 12.9375 30.9749 13.0125 30.9749 13.125C30.9749 13.2375 30.9374 13.3125 30.9374 13.425C30.9374 13.5375 30.9374 13.6125 30.9374 13.6875C30.9374 14.025 30.9749 14.2875 31.0874 14.475C31.1999 14.6625 31.3499 14.775 31.5374 14.85C31.7249 14.925 31.9499 14.9625 32.2124 14.9625H32.6999C32.9249 14.9625 33.1499 14.9625 33.2999 14.925C33.4499 14.8875 33.5999 14.85 33.7124 14.775C33.8249 14.7 33.9374 14.625 34.0124 14.5125C34.0874 14.4 34.1999 14.25 34.2749 14.1H34.4249L34.3874 14.25C34.3499 14.3625 34.3499 14.475 34.3874 14.55C34.4249 14.6625 34.4624 14.7375 34.5374 14.775C34.6124 14.85 34.7624 14.85 34.9124 14.85H37.6124L37.6874 14.5875C37.6499 14.5875 37.5749 14.5875 37.5374 14.55C37.4624 14.55 37.4249 14.5125 37.3874 14.475C37.3499 14.4375 37.3124 14.3625 37.3124 14.2875C37.3124 14.25 37.3124 14.2125 37.3124 14.175C37.3124 14.1375 37.3124 14.1 37.3499 14.025L38.2874 10.05C38.2874 10.0125 38.3249 9.9375 38.3249 9.8625C38.3249 9.7875 38.3249 9.7125 38.3624 9.675C38.3624 9.6 38.3624 9.5625 38.3624 9.4875C38.3624 9.2625 38.3249 9.0375 38.2124 8.8875C38.0999 8.7375 37.9499 8.5875 37.7999 8.5125C37.5749 8.5125 37.3874 8.4375 37.1624 8.4375Z" fill="#463F8D"/>
<path d="M32.1749 15.2625C31.8749 15.2625 31.6499 15.225 31.4249 15.15C31.1624 15.0375 30.9749 14.8875 30.8624 14.625C30.7499 14.4 30.6749 14.1 30.6749 13.725C30.6749 13.65 30.6749 13.5375 30.7124 13.425C30.7124 13.35 30.7499 13.2375 30.7499 13.125L30.7874 12.825C30.8999 12.2625 31.0874 11.85 31.3124 11.5125C31.5374 11.175 31.7999 10.9125 32.1374 10.7625C32.4374 10.6125 32.8124 10.5375 33.2249 10.5375H34.7999C34.8374 10.5375 34.8749 10.5375 34.9124 10.5C34.9124 10.5 34.9499 10.4625 34.9499 10.425V10.3875H33.3374C33.0749 10.3875 32.8874 10.35 32.7374 10.2375C32.6249 10.1625 32.5124 10.0125 32.5124 9.71252C32.5124 9.67502 32.5124 9.60002 32.5124 9.56252C32.5124 9.48752 32.5499 9.45002 32.5499 9.41252L32.8124 8.40002C32.8499 8.28752 32.9624 8.21252 33.0749 8.21252H37.1624C37.4249 8.21252 37.6874 8.25002 37.9124 8.36252C38.1374 8.47502 38.3249 8.62502 38.4374 8.85002C38.5499 9.07502 38.6249 9.30002 38.6249 9.60002C38.6249 9.67502 38.6249 9.71252 38.6249 9.78752C38.6249 9.86252 38.6249 9.93752 38.5874 10.0125C38.5874 10.0875 38.5499 10.1625 38.5499 10.2L37.6124 14.175C37.6124 14.2125 37.6124 14.25 37.5749 14.2875C37.5749 14.325 37.5749 14.325 37.5749 14.3625C37.6124 14.3625 37.6499 14.3625 37.6499 14.3625C37.7249 14.3625 37.7999 14.4 37.8749 14.475C37.9124 14.55 37.9499 14.625 37.9124 14.7L37.8374 14.9625C37.7999 15.075 37.6874 15.1875 37.5749 15.1875H34.8749C34.6499 15.1875 34.4624 15.15 34.3499 15.0375C34.2374 14.9625 34.1624 14.8875 34.1249 14.775C34.0124 14.8875 33.8999 14.9625 33.7874 15.0375C33.6374 15.1125 33.4874 15.1875 33.2999 15.225C33.1499 15.2625 32.9249 15.2625 32.6624 15.2625H32.1749C32.2124 15.2625 32.2124 15.2625 32.1749 15.2625ZM31.3499 12.9375L31.3124 13.2375C31.3124 13.35 31.2749 13.425 31.2749 13.5C31.2749 13.575 31.2749 13.65 31.2749 13.725C31.2749 14.025 31.3124 14.25 31.3874 14.4C31.4624 14.55 31.5749 14.625 31.6874 14.6625C31.8374 14.7375 32.0249 14.7375 32.2499 14.7375H32.7374C32.9624 14.7375 33.1499 14.7375 33.2999 14.7C33.4499 14.6625 33.5249 14.625 33.6374 14.5875C33.7124 14.55 33.7874 14.475 33.8624 14.4C33.9374 14.2875 34.0124 14.175 34.1249 14.025C34.1624 13.95 34.2749 13.875 34.3499 13.875H34.4999C34.5749 13.875 34.6499 13.9125 34.7249 13.9875C34.7624 14.0625 34.7999 14.1375 34.7624 14.2125L34.7249 14.3625C34.7249 14.4375 34.7249 14.475 34.7249 14.55C34.7249 14.55 34.7249 14.5875 34.7624 14.625C34.7999 14.625 34.8374 14.6625 35.0249 14.6625H37.2374C37.1999 14.5875 37.1624 14.5125 37.1624 14.4C37.1624 14.325 37.1624 14.2875 37.1624 14.2125C37.1624 14.175 37.1624 14.1375 37.1999 14.0625L38.1374 10.0875C38.1374 10.05 38.1749 9.97502 38.1749 9.93752C38.1749 9.86252 38.1749 9.82502 38.1749 9.75002C38.1749 9.67502 38.1749 9.63752 38.1749 9.60002C38.1749 9.41252 38.1374 9.26252 38.0624 9.11252C37.9874 9.00002 37.8749 8.88752 37.7624 8.85002C37.6124 8.77502 37.4624 8.73752 37.2374 8.73752H33.2624L33.0749 9.56252C33.0749 9.56252 33.0749 9.56252 33.0749 9.60002C33.0749 9.60002 33.0749 9.63752 33.0749 9.67502C33.0749 9.71252 33.0749 9.75002 33.0749 9.75002C33.0749 9.78752 33.0749 9.82502 33.1124 9.86252C33.1124 9.86252 33.1874 9.90002 33.3749 9.90002H34.9499C35.1749 9.90002 35.3249 9.97502 35.3999 10.0875C35.5124 10.2 35.5124 10.3875 35.4749 10.6125C35.4374 10.7625 35.3624 10.9125 35.2124 10.9875C35.0999 11.0625 34.9499 11.1 34.7999 11.1H33.2249C32.8874 11.1 32.6249 11.1375 32.3999 11.2875C32.1749 11.4 31.9499 11.5875 31.7999 11.85C31.5749 12.075 31.4624 12.45 31.3499 12.9375ZM34.1624 13.65C34.0124 13.65 33.8999 13.6125 33.7874 13.5375C33.6749 13.4625 33.6374 13.3125 33.6374 13.1625C33.6374 13.125 33.6374 13.0875 33.6374 13.05C33.6374 13.0125 33.6374 12.975 33.6374 12.9375L33.7499 12.525C33.7874 12.3375 33.8249 12.1875 33.8999 12.075C33.9749 11.9625 34.0874 11.85 34.1999 11.8125C34.3124 11.775 34.4249 11.7375 34.5374 11.7375H34.7999C34.8749 11.7375 34.9499 11.775 35.0249 11.85C35.0624 11.925 35.0999 12 35.0624 12.075L34.8374 13.125C34.7999 13.275 34.7624 13.3875 34.6499 13.4625C34.5374 13.575 34.4249 13.6125 34.2374 13.6125L34.1624 13.65ZM34.1999 13.125H34.2374H34.2749C34.2749 13.125 34.3124 13.0875 34.3124 13.05L34.4999 12.2625H34.4624C34.4624 12.2625 34.4249 12.2625 34.4249 12.3C34.3874 12.3375 34.3499 12.4125 34.3499 12.5625L34.2374 12.975C34.1999 13.0125 34.1999 13.05 34.1999 13.125C34.1999 13.0875 34.1999 13.0875 34.1999 13.125C34.1999 13.0875 34.1999 13.0875 34.1999 13.125Z" fill="white"/>
<path d="M11.775 21.675L11.5125 22.125L11.25 22.0125C11.1 22.0875 10.95 22.125 10.7625 22.125C10.5 22.125 10.3125 22.0875 10.1625 21.975C10.05 21.8625 9.975 21.75 9.9375 21.6C9.9375 21.525 9.9375 21.4125 9.9375 21.225V19.5H10.65V21.525C10.65 21.6375 10.6875 21.675 10.8 21.675C10.8375 21.675 10.875 21.675 10.9125 21.6375C10.95 21.6 10.95 21.5625 10.95 21.525C10.95 21.4125 10.9125 21.375 10.8 21.3375V19.5H11.5125V21.225C11.5125 21.375 11.5125 21.4875 11.5125 21.5625L11.775 21.675ZM13.9125 21.1125H13.2V20.025C13.2 19.95 13.1625 19.875 13.0875 19.875C13.0125 19.875 12.975 19.9125 12.975 20.025V22.0875H12.2625V20.3625C12.2625 20.175 12.2625 20.025 12.3 19.95C12.3375 19.8 12.375 19.725 12.525 19.6125C12.675 19.5 12.8625 19.4625 13.0875 19.4625C13.35 19.4625 13.5375 19.5 13.6875 19.6125C13.8 19.725 13.875 19.8375 13.9125 19.9875C13.9125 20.0625 13.9125 20.175 13.9125 20.3625V21.1125ZM16.5 20.025H16.275V21.225C16.275 21.4125 16.275 21.5625 16.2375 21.6375C16.2 21.7875 16.1625 21.8625 16.0125 21.975C15.8625 22.0875 15.675 22.125 15.45 22.125C15.1875 22.125 15 22.0875 14.85 21.975C14.7375 21.8625 14.6625 21.75 14.625 21.6C14.625 21.525 14.625 21.4125 14.625 21.225V19.5H15.3375V21.5625C15.3375 21.6375 15.375 21.7125 15.45 21.7125C15.525 21.7125 15.5625 21.675 15.5625 21.5625V19.5H16.5V20.025ZM18.7125 20.5125H17.775V21.6C17.775 21.675 17.8125 21.75 17.8875 21.75C17.9625 21.75 18 21.7125 18 21.6V20.8125H18.7125V21.2625C18.7125 21.45 18.7125 21.6 18.675 21.675C18.6375 21.825 18.6 21.9 18.45 22.0125C18.3 22.125 18.1125 22.1625 17.8875 22.1625C17.625 22.1625 17.4375 22.125 17.2875 22.0125C17.175 21.9 17.1 21.7875 17.0625 21.6375C17.0625 21.5625 17.0625 21.45 17.0625 21.2625V19.5375H17.775V19.9875H18.7125V20.5125ZM21.1125 21.225C21.1125 21.375 21.1125 21.525 21.1125 21.6C21.075 21.75 21 21.8625 20.8875 21.975C20.7375 22.0875 20.55 22.125 20.2875 22.125C20.0625 22.125 19.875 22.0875 19.725 21.975C19.6125 21.9 19.5375 21.7875 19.5 21.6375C19.5 21.5625 19.4625 21.4125 19.4625 21.225V20.025H19.2375V19.5H20.175V21.5625C20.175 21.6375 20.2125 21.7125 20.2875 21.7125C20.3625 21.7125 20.4 21.675 20.4 21.5625V20.475H21.1125V21.225ZM23.4375 21.4875H22.725V20.5125C22.725 20.4375 22.6875 20.3625 22.6125 20.3625C22.5375 20.3625 22.5 20.4 22.5 20.5125V22.0875H21.7875V19.5375H22.5V19.9875C22.5375 19.9875 22.575 19.9875 22.6125 19.9875C22.8375 19.9875 23.025 20.025 23.175 20.1375C23.2875 20.25 23.3625 20.3625 23.4 20.5125C23.4 20.5875 23.4 20.7 23.4 20.8875V21.4875H23.4375ZM25.9875 21.675L25.725 22.125L25.4625 22.0125C25.3125 22.0875 25.1625 22.125 24.975 22.125C24.7125 22.125 24.525 22.0875 24.375 21.975C24.2625 21.8625 24.1875 21.75 24.15 21.6C24.15 21.525 24.15 21.4125 24.15 21.225V19.5H24.8625V21.525C24.8625 21.6375 24.9 21.675 25.0125 21.675C25.05 21.675 25.0875 21.675 25.125 21.6375C25.1625 21.6 25.1625 21.5625 25.1625 21.525C25.1625 21.4125 25.125 21.375 25.0125 21.3375V19.5H25.725V21.225C25.725 21.375 25.725 21.4875 25.725 21.5625L25.9875 21.675ZM28.2375 21.225C28.2375 21.375 28.2375 21.525 28.2375 21.6C28.2 21.75 28.125 21.8625 28.0125 21.975C27.8625 22.0875 27.675 22.125 27.4125 22.125C27.1875 22.125 27 22.0875 26.85 21.975C26.7375 21.9 26.6625 21.7875 26.625 21.6375C26.625 21.5625 26.5875 21.4125 26.5875 21.225V20.025H26.3625V19.5H27.3V21.5625C27.3 21.6375 27.3375 21.7125 27.4125 21.7125C27.4875 21.7125 27.525 21.675 27.525 21.5625V20.475H28.2375V21.225ZM31.275 21.9H30.3375V22.0875H29.625V21.9H29.4V21.375H29.625V20.3625C29.625 20.175 29.625 20.025 29.6625 19.95C29.7 19.8 29.7375 19.725 29.8875 19.6125C30.0375 19.5 30.225 19.4625 30.45 19.4625C30.7125 19.4625 30.9 19.5375 31.05 19.65C31.2 19.7625 31.275 19.9125 31.275 20.1V20.3625C31.275 20.5875 31.2 20.775 31.0875 20.8875C30.975 21 30.7875 21.1125 30.6 21.1125C30.525 21.1125 30.45 21.1125 30.4125 21.1125V21.375H31.35V21.9H31.275ZM30.5625 20.475V20.0625C30.5625 19.9875 30.525 19.9125 30.45 19.9125C30.375 19.9125 30.3375 19.95 30.3375 20.0625V20.475C30.3375 20.5875 30.375 20.625 30.4125 20.625C30.525 20.625 30.5625 20.55 30.5625 20.475ZM33.7875 21.675L33.5625 22.125L33.3 22.0125C33.15 22.0875 33 22.125 32.8125 22.125C32.55 22.125 32.3625 22.0875 32.2125 21.975C32.1 21.8625 32.025 21.75 31.9875 21.6C31.9875 21.525 31.9875 21.4125 31.9875 21.225V19.5H32.7V21.525C32.7 21.6375 32.7375 21.675 32.85 21.675C32.8875 21.675 32.925 21.675 32.9625 21.6375C33 21.6 33 21.5625 33 21.525C33 21.4125 32.9625 21.375 32.85 21.3375V19.5H33.5625V21.225C33.5625 21.375 33.5625 21.4875 33.5625 21.5625L33.7875 21.675ZM35.9625 21.1125H35.25V20.025C35.25 19.95 35.2125 19.875 35.1375 19.875C35.0625 19.875 35.025 19.9125 35.025 20.025V22.0875H34.3125V20.3625C34.3125 20.175 34.3125 20.025 34.35 19.95C34.3875 19.8 34.425 19.725 34.575 19.6125C34.725 19.5 34.9125 19.4625 35.1375 19.4625C35.4 19.4625 35.5875 19.5 35.7375 19.6125C35.85 19.725 35.925 19.8375 35.9625 19.9875C35.9625 20.0625 35.9625 20.175 35.9625 20.3625V21.1125ZM38.5125 21.6375H38.2875V22.0875H37.575V20.025C37.575 19.95 37.5375 19.875 37.4625 19.875C37.3875 19.875 37.35 19.9125 37.35 20.025V21.1125H36.6375V20.3625C36.6375 20.2125 36.6375 20.0625 36.6375 19.9875C36.675 19.8375 36.75 19.725 36.8625 19.6125C37.0125 19.5 37.2 19.4625 37.4625 19.4625C37.6875 19.4625 37.875 19.5 38.025 19.6125C38.1375 19.6875 38.2125 19.8 38.25 19.95C38.25 20.025 38.2875 20.175 38.2875 20.3625V21.1125H38.5125V21.6375Z" fill="#F6CF2E"/>
</svg>
