<?xml version="1.0" encoding="utf-8"?>
<!-- Generator: Adobe Illustrator 23.1.0, SVG Export Plug-In . SVG Version: 6.00 Build 0)  -->
<svg version="1.1" id="Layer_1" xmlns="http://www.w3.org/2000/svg" xmlns:xlink="http://www.w3.org/1999/xlink" x="0px" y="0px"
	 viewBox="0 0 48 30" style="enable-background:new 0 0 48 30;" xml:space="preserve">
<style type="text/css">
	.st0{fill:#F2F2F2;}
	.st1{fill-rule:evenodd;clip-rule:evenodd;fill:url(#SVGID_2_);}
	.st2{clip-path:url(#SVGID_4_);fill:url(#SVGID_5_);}
	.st3{fill-rule:evenodd;clip-rule:evenodd;fill:#333333;}
</style>
<path class="st0" d="M0.3,2.5c0-1.2,1-2.3,2.3-2.3h43.5c1.2,0,2.3,1,2.3,2.3V28c0,1.2-1,2.3-2.3,2.3H2.6c-1.2,0-2.3-1-2.3-2.3V2.5z"
	/>
<g>
	<g>
		<g>
			<g>
				
					<linearGradient id="SVGID_2_" gradientUnits="userSpaceOnUse" x1="4.0519" y1="16.9312" x2="15.0814" y2="16.9312" gradientTransform="matrix(1 0 0 -1 0 31.9)">
					<stop  offset="0" style="stop-color:#F1692A"/>
					<stop  offset="1" style="stop-color:#F7941D"/>
				</linearGradient>
				<path id="SVGID_1_" class="st1" d="M11.2,10.8C11,11,10.8,11,10.6,10.9l-0.5-0.3C9,10,7.8,10,6.7,10.6C5.6,11.2,5,12.3,5,13.5
					v0.6c0,0.2-0.2,0.4-0.4,0.4c-0.2,0-0.4-0.2-0.4-0.4v-0.6c0-1.6,0.7-2.9,2.1-3.6s2.9-0.7,4.3,0l0.5,0.3
					C11.2,10.4,11.2,10.6,11.2,10.8 M10.3,17.7c-0.1-0.2-0.4-0.2-0.6-0.1l-0.5,0.3c-0.6,0.3-1.2,0.3-1.7,0c-0.6-0.3-0.9-0.8-0.9-1.4
					v-2.8c0-0.6,0.3-1.1,0.9-1.4c0.6-0.3,1.2-0.3,1.7,0l2.5,1.4c0.6,0.3,0.9,0.8,0.9,1.4c0,0.6-0.3,1.1-0.9,1.4l-0.5,0.3
					C11,16.9,11,17.2,11,17.3c0.1,0.2,0.4,0.2,0.6,0.1l0.5-0.3c0.8-0.4,1.3-1.2,1.3-2.2c0-0.9-0.4-1.7-1.3-2.2l-2.5-1.4
					C8.8,11,7.9,11,7,11.4c-0.8,0.4-1.3,1.2-1.3,2.2v2.8c0,0.9,0.4,1.7,1.3,2.2c0.8,0.4,1.7,0.4,2.6,0l0.5-0.3l0,0
					C10.3,18.1,10.4,17.9,10.3,17.7z M10.5,20c-1.4,0.7-2.9,0.7-4.3,0s-2.1-2.1-2.1-3.6v-0.6c0-0.2,0.2-0.4,0.4-0.4s0.4,0.2,0.4,0.4
					v0.6c0,1.2,0.6,2.3,1.7,2.9s2.3,0.6,3.4,0c0.8-0.4,1.6-0.9,2.5-1.4c1.1-0.6,1.7-1.7,1.7-2.9l0,0c0-1.2-0.6-2.3-1.7-2.9L12,11.8
					c-0.2-0.1-0.2-0.4-0.2-0.6c0.1-0.2,0.4-0.2,0.6-0.1l0,0l0.5,0.3c1.4,0.7,2.1,2.1,2.1,3.6c0,1.6-0.7,2.9-2.1,3.6
					C12.1,19.1,11.3,19.5,10.5,20z M7.5,14.2c0,0.2,0.2,0.4,0.4,0.4c0.2,0,0.4-0.2,0.4-0.4l0,0v-0.4c0-0.1,0-0.1,0.1-0.1
					s0.1,0,0.1,0l1.1,0.6l1.1,0.6c0.1,0,0.1,0.1,0.1,0.1c0,0.1,0,0.1-0.1,0.1l-1.1,0.6l-1.1,0.6c-0.1,0-0.1,0-0.1,0
					s-0.1-0.1-0.1-0.1v-0.4c0-0.2-0.2-0.4-0.4-0.4s-0.4,0.2-0.4,0.4v0.6c0,0.3,0.2,0.6,0.4,0.7c0.2,0.1,0.6,0.1,0.9,0l2.5-1.4
					c0.2-0.1,0.4-0.4,0.4-0.7s-0.1-0.6-0.4-0.7L8.8,13c-0.2-0.1-0.6-0.1-0.9,0c-0.2,0.1-0.4,0.4-0.4,0.7C7.5,13.7,7.5,14.2,7.5,14.2
					z"/>
			</g>
			<g>
				<defs>
					<path id="SVGID_3_" d="M11.2,10.8C11,11,10.8,11,10.6,10.9l-0.5-0.3C9,10,7.8,10,6.7,10.6C5.6,11.2,5,12.3,5,13.5v0.6
						c0,0.2-0.2,0.4-0.4,0.4c-0.2,0-0.4-0.2-0.4-0.4v-0.6c0-1.6,0.7-2.9,2.1-3.6s2.9-0.7,4.3,0l0.5,0.3
						C11.2,10.4,11.2,10.6,11.2,10.8 M10.3,17.7c-0.1-0.2-0.4-0.2-0.6-0.1l-0.5,0.3c-0.6,0.3-1.2,0.3-1.7,0
						c-0.6-0.3-0.9-0.8-0.9-1.4v-2.8c0-0.6,0.3-1.1,0.9-1.4c0.6-0.3,1.2-0.3,1.7,0l2.5,1.4c0.6,0.3,0.9,0.8,0.9,1.4
						c0,0.6-0.3,1.1-0.9,1.4l-0.5,0.3C11,16.9,11,17.2,11,17.3c0.1,0.2,0.4,0.2,0.6,0.1l0.5-0.3c0.8-0.4,1.3-1.2,1.3-2.2
						c0-0.9-0.4-1.7-1.3-2.2l-2.5-1.4C8.8,11,7.9,11,7,11.4c-0.8,0.4-1.3,1.2-1.3,2.2v2.8c0,0.9,0.4,1.7,1.3,2.2
						c0.8,0.4,1.7,0.4,2.6,0l0.5-0.3l0,0C10.3,18.1,10.4,17.9,10.3,17.7z M10.5,20c-1.4,0.7-2.9,0.7-4.3,0s-2.1-2.1-2.1-3.6v-0.6
						c0-0.2,0.2-0.4,0.4-0.4s0.4,0.2,0.4,0.4v0.6c0,1.2,0.6,2.3,1.7,2.9s2.3,0.6,3.4,0c0.8-0.4,1.6-0.9,2.5-1.4
						c1.1-0.6,1.7-1.7,1.7-2.9l0,0c0-1.2-0.6-2.3-1.7-2.9L12,11.8c-0.2-0.1-0.2-0.4-0.2-0.6c0.1-0.2,0.4-0.2,0.6-0.1l0,0l0.5,0.3
						c1.4,0.7,2.1,2.1,2.1,3.6c0,1.6-0.7,2.9-2.1,3.6C12.1,19.1,11.3,19.5,10.5,20z M7.5,14.2c0,0.2,0.2,0.4,0.4,0.4
						c0.2,0,0.4-0.2,0.4-0.4l0,0v-0.4c0-0.1,0-0.1,0.1-0.1s0.1,0,0.1,0l1.1,0.6l1.1,0.6c0.1,0,0.1,0.1,0.1,0.1c0,0.1,0,0.1-0.1,0.1
						l-1.1,0.6l-1.1,0.6c-0.1,0-0.1,0-0.1,0s-0.1-0.1-0.1-0.1v-0.4c0-0.2-0.2-0.4-0.4-0.4s-0.4,0.2-0.4,0.4v0.6
						c0,0.3,0.2,0.6,0.4,0.7c0.2,0.1,0.6,0.1,0.9,0l2.5-1.4c0.2-0.1,0.4-0.4,0.4-0.7s-0.1-0.6-0.4-0.7L8.8,13
						c-0.2-0.1-0.6-0.1-0.9,0c-0.2,0.1-0.4,0.4-0.4,0.7C7.5,13.7,7.5,14.2,7.5,14.2z"/>
				</defs>
				<clipPath id="SVGID_4_">
					<use xlink:href="#SVGID_3_"  style="overflow:visible;"/>
				</clipPath>
				
					<linearGradient id="SVGID_5_" gradientUnits="userSpaceOnUse" x1="4.0519" y1="16.9312" x2="15.0857" y2="16.9312" gradientTransform="matrix(1 0 0 -1 0 31.9)">
					<stop  offset="0" style="stop-color:#F1692A"/>
					<stop  offset="1" style="stop-color:#F7941D"/>
				</linearGradient>
				<rect x="4.1" y="9.2" class="st2" width="11" height="11.6"/>
			</g>
		</g>
	</g>
	<g>
		<path class="st3" d="M18.2,11.7c0.3,0,0.5,0.2,0.5,0.5c0,0.2-0.2,0.5-0.5,0.5c-0.3,0-0.5-0.2-0.5-0.5C17.7,12,18,11.7,18.2,11.7
			 M17.8,13.5h0.7v4.6h-0.7V13.5z"/>
		<path class="st3" d="M28.2,13.3c-0.7,0-1.2,0.2-1.7,0.7v-0.6h-0.7v2.3v2.3h0.7v-2.3c0-0.9,0.7-1.7,1.7-1.7V13.3z"/>
		<path class="st3" d="M35.5,13.5h-0.7v2.3v2.3h0.7v-2.3c0-0.9,0.7-1.7,1.7-1.7c0.9,0,1.7,0.7,1.7,1.7v2.3h0.7v-2.3
			c0-0.9,0.7-1.7,1.7-1.7s1.7,0.7,1.7,1.7v2.3H44v-2.3c0-1.4-1.1-2.4-2.5-2.4c-0.9,0-1.7,0.4-2.1,1.1c-0.4-0.7-1.2-1.1-2.1-1.1
			c-0.7,0-1.2,0.2-1.7,0.7C35.5,14,35.5,13.5,35.5,13.5z"/>
		<path class="st3" d="M23.9,11.7V14c-0.4-0.4-1.1-0.7-1.7-0.7c-1.4,0-2.5,1.1-2.5,2.4s1.1,2.4,2.5,2.4c0.7,0,1.2-0.2,1.7-0.7v0.6
			h0.7v-2.3v-4.1H23.9z M22.1,17.5c-0.9,0-1.7-0.7-1.7-1.7c0-0.9,0.7-1.7,1.7-1.7c0.9,0,1.7,0.7,1.7,1.7
			C23.9,16.7,23.1,17.5,22.1,17.5z"/>
		<path class="st3" d="M32.9,13.5V14c-0.4-0.4-1.1-0.7-1.7-0.7c-1.4,0-2.5,1.1-2.5,2.4s1.1,2.4,2.5,2.4c0.7,0,1.2-0.2,1.7-0.7v0.6
			h0.7v-2.3v-2.3C33.7,13.5,32.9,13.5,32.9,13.5z M32.9,15.8c0,0.9-0.7,1.7-1.7,1.7c-0.9,0-1.7-0.7-1.7-1.7c0-0.9,0.7-1.7,1.7-1.7
			c0.9,0,1.6,0.7,1.7,1.5C32.9,15.7,32.9,15.7,32.9,15.8L32.9,15.8L32.9,15.8z"/>
	</g>
</g>
</svg>
