<svg width="48" height="30" viewBox="0 0 48 30" fill="none" xmlns="http://www.w3.org/2000/svg">
<path d="M0 2.25C0 1.0125 1.0125 0 2.25 0H45.75C46.9875 0 48 1.0125 48 2.25V27.75C48 28.9875 46.9875 30 45.75 30H2.25C1.0125 30 0 28.9875 0 27.75V2.25Z" fill="#F2F2F2"/>
<path d="M28.1999 6.1875H20.0999V19.425H28.1999V6.1875Z" fill="#FF5F00"/>
<path d="M20.9629 12.7877C20.9629 10.0877 22.2379 7.7252 24.1879 6.1877C22.7629 5.0627 20.9629 4.3877 18.9754 4.3877C14.3254 4.3877 10.5754 8.13769 10.5754 12.7877C10.5754 17.4377 14.3254 21.1877 18.9754 21.1877C20.9254 21.1877 22.7254 20.5127 24.1879 19.3877C22.2004 17.8502 20.9629 15.4502 20.9629 12.7877Z" fill="#EB001B"/>
<path d="M37.7626 12.7877C37.7626 17.4377 34.0126 21.1877 29.3626 21.1877C27.4126 21.1877 25.6126 20.5127 24.1501 19.3877C26.1001 17.8502 27.3751 15.4502 27.3751 12.7877C27.3751 10.0877 26.1001 7.7252 24.1501 6.1877C25.5751 5.0627 27.3751 4.3877 29.3626 4.3877C34.0126 4.3877 37.7626 8.13769 37.7626 12.7877Z" fill="#F79E1B"/>
<path d="M15.4876 25.4249V23.9999C15.4876 23.4749 15.1876 23.1374 14.6251 23.0999C14.3251 23.0999 14.0626 23.1749 13.8376 23.5124C13.6876 23.2499 13.4251 23.0999 13.0876 23.0999C12.8626 23.0999 12.6001 23.1749 12.4126 23.4374V23.1749H11.9626V25.4249H12.4126V24.1499C12.4126 23.7749 12.6376 23.5499 12.9751 23.5499C13.3126 23.5499 13.4626 23.7749 13.4626 24.1499V25.4249H13.9126V24.1499C13.9126 23.7749 14.1376 23.5499 14.4751 23.5499C14.8126 23.5499 15.0001 23.7749 15.0001 24.1499V25.4249H15.4876ZM22.7626 23.1749H21.9376V22.4999H21.4876V23.1749H21.0001V23.5874H21.4876V24.6374C21.4876 25.1624 21.6751 25.4624 22.2376 25.4624C22.4626 25.4624 22.6876 25.3874 22.8376 25.2749L22.6876 24.8624C22.5376 24.9374 22.3876 24.9749 22.2751 24.9749C22.0501 24.9749 21.9376 24.8249 21.9376 24.5999V23.5499H22.7626V23.1749ZM26.9251 23.1374C26.6626 23.1374 26.4376 23.2499 26.3251 23.4749V23.2124H25.8751V25.4624H26.3251V24.1874C26.3251 23.8124 26.5126 23.5874 26.8126 23.5874C26.9251 23.5874 27.0001 23.5874 27.1126 23.6624L27.2626 23.2499C27.1501 23.1374 27.0001 23.1374 26.9251 23.1374ZM20.6251 23.3624C20.4001 23.2124 20.0626 23.1374 19.7251 23.1374C19.1626 23.1374 18.8251 23.3999 18.8251 23.8499C18.8251 24.2249 19.0876 24.4499 19.5751 24.4874L19.8001 24.5249C20.0626 24.5624 20.2126 24.6374 20.2126 24.7874C20.2126 24.9749 20.0251 25.0874 19.6876 25.0874C19.3501 25.0874 19.1251 24.9749 18.9376 24.8624L18.7126 25.1999C19.0501 25.4249 19.4251 25.4999 19.6876 25.4999C20.3251 25.4999 20.7001 25.1999 20.7001 24.7874C20.7001 24.4124 20.4376 24.1874 19.9501 24.1124L19.7251 24.0749C19.5001 24.0374 19.3126 23.9999 19.3126 23.8499C19.3126 23.6999 19.5001 23.5874 19.7626 23.5874C20.0626 23.5874 20.3251 23.6999 20.4751 23.7749L20.6251 23.3624ZM27.4126 24.2999C27.4126 24.9749 27.8626 25.4624 28.5751 25.4624C28.9126 25.4624 29.1376 25.3874 29.3626 25.1999L29.1376 24.8624C28.9501 24.9749 28.7626 25.0499 28.5376 25.0499C28.1626 25.0499 27.8626 24.7499 27.8626 24.2999C27.8626 23.8499 28.1626 23.5499 28.5376 23.5499C28.7626 23.5499 28.9501 23.6249 29.1376 23.7374L29.3626 23.3999C29.1376 23.2124 28.9126 23.1374 28.5751 23.1374C27.8626 23.1374 27.4126 23.6249 27.4126 24.2999ZM24.2626 23.1374C23.6251 23.1374 23.1751 23.6249 23.1751 24.2999C23.1751 25.0124 23.6251 25.4624 24.3001 25.4624C24.6376 25.4624 24.9376 25.3874 25.2001 25.1624L24.9751 24.8249C24.7876 24.9749 24.5626 25.0499 24.3376 25.0499C24.0376 25.0499 23.7001 24.8624 23.6626 24.4874H25.3501C25.3501 24.4124 25.3501 24.3749 25.3501 24.2999C25.3126 23.5874 24.9001 23.1374 24.2626 23.1374ZM24.2626 23.5499C24.6001 23.5499 24.8251 23.7749 24.8626 24.1124H23.6626C23.7001 23.7749 23.9251 23.5499 24.2626 23.5499ZM18.2251 24.2999V23.1749H17.7751V23.4374C17.6251 23.2499 17.3626 23.0999 17.0626 23.0999C16.4251 23.0999 15.9751 23.5874 15.9751 24.2624C15.9751 24.9374 16.4626 25.4249 17.0626 25.4249C17.3626 25.4249 17.6251 25.3124 17.7751 25.0874V25.3499H18.2251V24.2999ZM16.3876 24.2999C16.3876 23.8874 16.6501 23.5499 17.1001 23.5499C17.5126 23.5499 17.7751 23.8874 17.7751 24.2999C17.7751 24.7499 17.5126 25.0499 17.1001 25.0499C16.6876 25.0499 16.3876 24.7124 16.3876 24.2999ZM33.6751 23.1374C33.4126 23.1374 33.1876 23.2499 33.0751 23.4749V23.2124H32.6251V25.4624H33.0751V24.1874C33.0751 23.8124 33.2626 23.5874 33.5626 23.5874C33.6751 23.5874 33.7501 23.5874 33.8626 23.6624L34.0126 23.2499C33.9001 23.1374 33.7501 23.1374 33.6751 23.1374ZM31.9501 24.2999V23.1749H31.5001V23.4374C31.3501 23.2499 31.0876 23.0999 30.7876 23.0999C30.1501 23.0999 29.7001 23.5874 29.7001 24.2624C29.7001 24.9374 30.1876 25.4249 30.7876 25.4249C31.0876 25.4249 31.3501 25.3124 31.5001 25.0874V25.3499H31.9501V24.2999ZM30.1501 24.2999C30.1501 23.8874 30.4126 23.5499 30.8626 23.5499C31.2751 23.5499 31.5376 23.8874 31.5376 24.2999C31.5376 24.7499 31.2751 25.0499 30.8626 25.0499C30.4126 25.0499 30.1501 24.7124 30.1501 24.2999ZM36.4501 24.2999V22.2749H36.0001V23.4374C35.8501 23.2499 35.5876 23.0999 35.2876 23.0999C34.6501 23.0999 34.2001 23.5874 34.2001 24.2624C34.2001 24.9374 34.6876 25.4249 35.2876 25.4249C35.5876 25.4249 35.8501 25.3124 36.0001 25.0874V25.3499H36.4501V24.2999ZM34.6501 24.2999C34.6501 23.8874 34.9126 23.5499 35.3626 23.5499C35.7751 23.5499 36.0376 23.8874 36.0376 24.2999C36.0376 24.7499 35.7751 25.0499 35.3626 25.0499C34.9126 25.0499 34.6501 24.7124 34.6501 24.2999Z" fill="black"/>
</svg>
