<svg width="48" height="30" viewBox="0 0 48 30" fill="none" xmlns="http://www.w3.org/2000/svg">
<path d="M0 2.25C0 1.0125 1.0125 0 2.25 0H45.75C46.9875 0 48 1.0125 48 2.25V27.75C48 28.9875 46.9875 30 45.75 30H2.25C1.0125 30 0 28.9875 0 27.75V2.25Z" fill="#F2F2F2"/>
<path fill-rule="evenodd" clip-rule="evenodd" d="M21 10.0875L19.3875 19.875H21.9375L23.55 10.0875H21ZM17.25 10.0875L14.8125 16.8375L14.55 15.375L14.475 15.0375C14.175 14.4 13.5 13.2 12.225 12.1875C11.85 11.8875 11.475 11.625 11.1 11.4L13.3125 19.875H15.975L20.025 10.0875H17.25ZM27.225 12.825C27.225 11.7 29.7 11.85 30.7875 12.45L31.1625 10.35C31.1625 10.35 30.0375 9.9375 28.875 9.9375C27.6 9.9375 24.6 10.5 24.6 13.1625C24.6 15.675 28.125 15.7125 28.125 17.0625C28.125 18.375 24.975 18.15 23.925 17.325L23.55 19.5375C23.55 19.5375 24.675 20.1 26.4375 20.1C28.1625 20.1 30.7875 19.2 30.7875 16.7625C30.7875 14.175 27.225 13.95 27.225 12.825ZM37.6125 10.0875H35.55C34.6125 10.0875 34.3875 10.8 34.3875 10.8L30.6 19.9125H33.2625L33.7875 18.45H37.0125L37.3125 19.9125H39.6375L37.6125 10.0875ZM34.5 16.425L35.85 12.75L36.6 16.425H34.5Z" fill="#005BAC"/>
<path fill-rule="evenodd" clip-rule="evenodd" d="M13.725 11.025C13.725 11.025 13.6125 10.125 12.4875 10.125H8.40005L8.36255 10.275C8.36255 10.275 10.3125 10.6875 12.225 12.1875C14.025 13.6125 14.625 15.4125 14.625 15.4125L13.725 11.025Z" fill="#F6AC1D"/>
</svg>
