<svg width="915" height="992" viewBox="0 0 915 992" fill="none" xmlns="http://www.w3.org/2000/svg">
<path d="M664.618 377.617C703.756 330 767.255 269.665 843.286 189.634C1083.6 -63.3241 1214.82 30.6628 1342 0.892357L1221.42 368.157L906.34 1327.78L0.346188 1030.32C9.82105 974.82 33.7285 914.498 58.562 867.765C84.4563 819.037 112.333 768.299 147.913 730.026C181.753 693.627 221.336 677.648 259.604 657.745C346.508 612.545 448.751 613.392 529.481 535.738C556.831 509.43 583.089 485.132 608.269 454.528C628.199 430.304 644.695 401.855 664.618 377.617Z" fill="url(#paint0_linear_252_3082)"/>
<defs>
<linearGradient id="paint0_linear_252_3082" x1="886.829" y1="-148.554" x2="451.17" y2="1178.34" gradientUnits="userSpaceOnUse">
<stop stop-color="#B99A9E"/>
<stop offset="1" stop-color="#445189"/>
</linearGradient>
</defs>
</svg>
