<svg width="31" height="30" viewBox="0 0 31 30" fill="none" xmlns="http://www.w3.org/2000/svg">
<path d="M2.89478 2.5H5.06978C6.41978 2.5 7.48228 3.6625 7.36978 5L6.33228 17.45C6.15728 19.4875 7.76977 21.2375 9.81977 21.2375H23.1323C24.9323 21.2375 26.5073 19.7625 26.6448 17.975L27.3198 8.60001C27.4698 6.52501 25.8948 4.83749 23.8073 4.83749H7.66978" stroke="white" stroke-width="1.5" stroke-miterlimit="10" stroke-linecap="round" stroke-linejoin="round"/>
<path d="M20.7073 27.5C21.5702 27.5 22.2698 26.8004 22.2698 25.9375C22.2698 25.0746 21.5702 24.375 20.7073 24.375C19.8443 24.375 19.1448 25.0746 19.1448 25.9375C19.1448 26.8004 19.8443 27.5 20.7073 27.5Z" stroke="white" stroke-width="1.5" stroke-miterlimit="10" stroke-linecap="round" stroke-linejoin="round"/>
<path d="M10.7073 27.5C11.5702 27.5 12.2698 26.8004 12.2698 25.9375C12.2698 25.0746 11.5702 24.375 10.7073 24.375C9.84433 24.375 9.14478 25.0746 9.14478 25.9375C9.14478 26.8004 9.84433 27.5 10.7073 27.5Z" stroke="white" stroke-width="1.5" stroke-miterlimit="10" stroke-linecap="round" stroke-linejoin="round"/>
<path d="M11.6448 10H26.6448" stroke="white" stroke-width="1.5" stroke-miterlimit="10" stroke-linecap="round" stroke-linejoin="round"/>
</svg>
